<svg width="600" height="678" viewBox="0 0 600 678" fill="none" xmlns="http://www.w3.org/2000/svg">
<g clip-path="url(#clip0_4234_2124)">
<path d="M0 12C0 5.37259 5.37258 0 12 0H588C594.627 0 600 5.37258 600 12V666C600 672.627 594.627 678 588 678H12C5.37257 678 0 672.627 0 666V12Z" fill="url(#paint0_linear_4234_2124)"/>
<g opacity="0.3" clip-path="url(#clip1_4234_2124)">
<path d="M-33.5946 486.428C-2.20879 471.658 37.8213 439.874 74.175 400.29C174.28 291.279 263.331 173.91 326.445 65.949L344.704 34.7213L345.183 52.8373C347.646 146.262 426.504 166.791 556.147 107.734L716.819 34.5859L780.939 -23.0026C814.126 -52.8152 827.561 -90.0962 800.706 -77.8664L615.253 6.61653C511.096 54.0647 447.725 37.5804 445.763 -37.4875L442.545 -159.924C441.939 -182.877 391.59 -147.613 368.469 -108.055L245.077 103.025C169.021 233.134 48.0957 378.123 -81.308 494.345L-81.4997 494.516C-92.1212 504.05 -96.319 515.944 -87.6251 511.844L-33.57 486.411L-33.5946 486.428Z" fill="#D4D7E9"/>
<path d="M569.295 190.452C536.571 205.848 494.84 239.518 457.031 280.881C358.419 388.755 270.76 504.582 208.416 611.235L190.156 642.463L189.684 624.37C187.228 530.418 109.069 510.077 -21.2762 569.453L-182.05 642.69L-246.068 700.189C-279.255 730.001 -292.691 767.282 -265.835 755.053L-80.3823 670.57C24.3374 622.865 87.1302 639.204 89.1182 714.676L92.3276 837.099C92.9336 860.053 143.282 824.789 166.404 785.231L289.795 574.151C365.851 444.042 486.763 299.071 616.167 182.85C626.788 173.316 630.986 161.421 622.292 165.522L569.306 190.454L569.295 190.452Z" fill="#D4D7E9"/>
</g>
</g>
<defs>
<linearGradient id="paint0_linear_4234_2124" x1="300" y1="0" x2="300" y2="678" gradientUnits="userSpaceOnUse">
<stop stop-color="white"/>
<stop offset="1" stop-color="#E4E4F0"/>
</linearGradient>
<clipPath id="clip0_4234_2124">
<path d="M0 12C0 5.37259 5.37258 0 12 0H588C594.627 0 600 5.37258 600 12V666C600 672.627 594.627 678 588 678H12C5.37257 678 0 672.627 0 666V12Z" fill="white"/>
</clipPath>
<clipPath id="clip1_4234_2124">
<rect width="1145.65" height="1145.65" fill="white" transform="translate(-165 -325) rotate(10)"/>
</clipPath>
</defs>
</svg>
