<svg width="1440" height="782" viewBox="0 0 1440 782" fill="none" xmlns="http://www.w3.org/2000/svg">
<g clip-path="url(#clip0_4111_2364)">
<rect width="1440" height="782" fill="url(#paint0_linear_4111_2364)"/>
<g opacity="0.3" clip-path="url(#clip1_4111_2364)">
<path d="M462.605 504.688C493.99 489.918 534.021 458.135 570.374 418.55C670.479 309.539 759.53 192.17 822.644 84.2092L840.904 52.9816L841.382 71.0975C843.845 164.522 922.703 185.052 1052.35 125.994L1213.02 52.8462L1277.14 -4.74231C1310.33 -34.555 1323.76 -71.8359 1296.91 -59.6061L1111.45 24.8768C1007.29 72.3249 943.924 55.8407 941.962 -19.2273L938.744 -141.664C938.138 -164.617 887.789 -129.353 864.668 -89.7946L741.277 121.285C665.221 251.394 544.295 396.384 414.891 512.605L414.7 512.776C404.078 522.31 399.88 534.205 408.574 530.104L462.629 504.671L462.605 504.688Z" fill="#D4D7E9"/>
<path d="M1065.49 208.712C1032.77 224.107 991.039 257.778 953.23 299.141C854.618 407.015 766.959 522.842 704.615 629.495L686.355 660.723L685.883 642.63C683.427 548.678 605.269 528.337 474.923 587.712L314.149 660.95L250.131 718.449C216.944 748.261 203.509 785.542 230.364 773.312L415.817 688.829C520.537 641.125 583.329 657.464 585.317 732.935L588.527 855.359C589.133 878.313 639.482 843.049 662.603 803.49L785.994 592.411C862.05 462.302 982.962 317.331 1112.37 201.11C1122.99 191.576 1127.19 179.681 1118.49 183.781L1065.5 208.713L1065.49 208.712Z" fill="#D4D7E9"/>
</g>
</g>
<defs>
<linearGradient id="paint0_linear_4111_2364" x1="720" y1="0" x2="720" y2="782" gradientUnits="userSpaceOnUse">
<stop stop-color="white"/>
<stop offset="1" stop-color="#E4E4F0"/>
</linearGradient>
<clipPath id="clip0_4111_2364">
<rect width="1440" height="782" fill="white"/>
</clipPath>
<clipPath id="clip1_4111_2364">
<rect width="1145.65" height="1145.65" fill="white" transform="translate(331.199 -306.74) rotate(10)"/>
</clipPath>
</defs>
</svg>
