<svg width="48" height="38" viewBox="0 0 48 38" fill="none" xmlns="http://www.w3.org/2000/svg">
<path d="M43.778 3.81026C46.5252 6.72669 48.0004 9.99984 48.0004 15.3057C48.0004 24.6374 41.4497 33.0033 31.9188 37.138L29.5383 33.4644C38.4324 28.6521 40.1705 22.4102 40.8655 18.4745C39.4335 19.215 37.5588 19.4753 35.7212 19.3052C30.9095 18.859 27.1172 14.9089 27.1172 9.99984C27.1172 4.84517 31.2959 0.666504 36.4505 0.666504C39.3121 0.666504 42.0484 1.97437 43.778 3.81026ZM17.1113 3.81026C19.8585 6.72669 21.3337 9.99984 21.3337 15.3057C21.3337 24.6374 14.7831 33.0033 5.25218 37.138L2.87167 33.4644C11.7656 28.6521 13.5039 22.4102 14.1987 18.4745C12.7667 19.215 10.8922 19.4753 9.05452 19.3052C4.24287 18.859 0.450684 14.9089 0.450684 9.99984C0.450684 4.84517 4.62935 0.666504 9.78402 0.666504C12.6455 0.666504 15.3819 1.97437 17.1113 3.81026Z" fill="#7078B6"/>
</svg>
