<svg width="60" height="46" viewBox="0 0 60 46" fill="none" xmlns="http://www.w3.org/2000/svg">
<path d="M54.7222 4.2632C58.1562 7.90873 60.0002 12.0002 60.0002 18.6325C60.0002 30.2972 51.8118 40.7545 39.8982 45.9228L36.9225 41.3308C48.0402 35.3155 50.2128 27.5132 51.0815 22.5935C49.2915 23.5192 46.9482 23.8445 44.6512 23.6318C38.6365 23.0742 33.8962 18.1365 33.8962 12.0002C33.8962 5.55683 39.1195 0.333496 45.5628 0.333496C49.1398 0.333496 52.5602 1.96833 54.7222 4.2632ZM21.3888 4.2632C24.8228 7.90873 26.6668 12.0002 26.6668 18.6325C26.6668 30.2972 18.4785 40.7545 6.56486 45.9228L3.58922 41.3308C14.7067 35.3155 16.8796 27.5132 17.7481 22.5935C15.9581 23.5192 13.6149 23.8445 11.3178 23.6318C5.30322 23.0742 0.562988 18.1365 0.562988 12.0002C0.562988 5.55683 5.78632 0.333496 12.2297 0.333496C15.8065 0.333496 19.227 1.96833 21.3888 4.2632Z" fill="#D4D7E9"/>
</svg>
