<svg width="84" height="33" viewBox="0 0 84 33" fill="none" xmlns="http://www.w3.org/2000/svg">
<path d="M27.3067 15.4971L26.6385 17.503L29.8439 18.5717C29.5955 21.3018 27.876 30.3859 16.0002 30.3859C9.47199 30.3859 3.98337 25.8573 2.5066 19.7773C2.34682 19.1188 1.65996 18.7363 1.01668 18.9507L0.234375 19.2115C1.52647 26.7468 8.10174 32.5004 15.9995 32.5004C23.8973 32.5004 28.1596 28.4989 30.0016 25.1421C31.9771 21.5411 31.9999 17.974 31.9999 17.8239C31.9999 17.3688 31.7087 16.9649 31.2771 16.821L27.3067 15.4978V15.4971Z" fill="#3B43A8"/>
<path d="M30.9832 14.0483L31.7655 13.7875C30.4727 6.25285 23.8981 0.5 16.0003 0.5C8.10254 0.5 3.84031 4.50147 1.99831 7.85828C0.0228271 11.4593 0 15.0263 0 15.1764C0 15.6316 0.291205 16.0355 0.722825 16.1794L4.69317 17.5026L5.36135 15.4967L2.15602 14.428C2.40434 11.6979 4.1239 2.61383 15.9997 2.61383C22.5272 2.61383 28.0158 7.14168 29.4926 13.221C29.6524 13.8802 30.3392 14.262 30.9825 14.0476L30.9832 14.0483Z" fill="#3B43A8"/>
<path d="M9.6227 15.1374C10.396 15.3809 11.2489 15.2654 11.9046 14.7881C13.6996 13.4815 15.0795 11.6326 15.794 9.49042L16.0002 8.87066L16.2063 9.49042C17.2715 12.6854 19.8149 15.2287 23.0098 16.294L26.9705 17.6151L30.3155 16.5001L23.6787 14.288C21.1118 13.4324 19.0678 11.3884 18.2122 8.82155L16.8164 4.63471C16.5549 3.84963 15.4447 3.84963 15.1833 4.63471L13.7874 8.82155C12.9269 11.4023 10.9017 13.4276 8.32093 14.288L7.64307 14.5142L9.6227 15.1374Z" fill="#3B43A8"/>
<path d="M22.3769 17.8655C21.5669 17.6102 20.6885 17.7707 20.0071 18.277C18.2551 19.5795 16.909 21.4021 16.2063 23.5097L16.0001 24.1295L15.794 23.5111C14.7233 20.2982 12.2027 17.7776 8.98979 16.7069L5.02705 15.3857L1.68408 16.5001L8.32092 18.7121C10.9016 19.5726 12.9269 21.5979 13.7874 24.1786L15.1826 28.3654C15.444 29.1505 16.5542 29.1505 16.8157 28.3654L18.2115 24.1786C19.072 21.5979 21.0966 19.5726 23.6773 18.7121L24.351 18.4873L22.3755 17.8648L22.3769 17.8655Z" fill="#3B43A8"/>
<path d="M44.3264 4.279C44.3002 3.91655 44.2026 3.72149 43.964 3.53612C43.6631 3.29748 43.2474 3.18197 42.6989 3.18197C41.7436 3.18197 41.1149 3.55341 41.1149 4.11092C41.1149 4.34956 41.2477 4.56191 41.4863 4.68572C41.6897 4.80054 41.8668 4.8538 42.4153 4.95133L43.6271 5.16368C44.2642 5.2785 44.6094 5.39402 44.9013 5.60637C45.2464 5.854 45.4498 6.26971 45.4498 6.73868C45.4498 7.34945 45.1136 7.90626 44.5561 8.22514C44.0871 8.49974 43.5649 8.61456 42.822 8.61456C41.6897 8.61456 40.8929 8.34895 40.4599 7.82741C40.168 7.47326 40.0614 7.1371 40.0352 6.47376H40.9821C40.9911 6.91644 41.0796 7.16407 41.3272 7.38472C41.6544 7.6946 42.1677 7.8447 42.858 7.8447C43.8665 7.8447 44.5035 7.45528 44.5035 6.82722C44.5035 6.39352 44.1853 6.15488 43.4328 6.02208L42.3088 5.83601C41.7423 5.72949 41.265 5.60568 40.9731 5.47287C40.5041 5.25153 40.2032 4.74728 40.2032 4.18147C40.2032 3.07545 41.1502 2.41211 42.7072 2.41211C43.5123 2.41211 44.1494 2.5712 44.5651 2.88108C44.9988 3.20825 45.1759 3.5714 45.2464 4.279H44.3264Z" fill="black"/>
<path d="M48.5293 8.46406V3.38562H46.2729V2.5625H51.7145V3.38562H49.4409V8.46406H48.5293Z" fill="black"/>
<path d="M52.8911 8.46406V2.5625H57.7219V3.38562H53.8021V5.04016H57.4916V5.86328H53.8021V7.64163H57.8015V8.46475H52.8911V8.46406Z" fill="black"/>
<path d="M59.2788 8.46406V2.5625H60.1905V7.64094H63.88V8.46406H59.2788Z" fill="black"/>
<path d="M65.1274 8.46406V2.5625H66.0391V7.64094H69.7286V8.46406H65.1274Z" fill="black"/>
<path d="M72.4533 6.76525L71.6834 8.46406H70.6479L73.3905 2.5625H74.417L77.1776 8.46406H76.0805L75.3107 6.76525H72.4526H72.4533ZM73.8685 3.58068L72.7887 5.99609H74.9655L73.8685 3.58068Z" fill="black"/>
<path d="M79.1773 8.46406H78.2656V2.5625H81.5214C82.8218 2.5625 83.4942 3.12001 83.4942 4.21704C83.4942 4.86309 83.2638 5.23453 82.6627 5.59698C83.2735 5.89786 83.3793 6.15448 83.4326 7.49914C83.4679 8.16248 83.5301 8.2863 83.7868 8.269V8.46337H82.6627C82.5652 8.10092 82.5652 8.02968 82.5126 7.28679C82.4504 6.29559 82.1855 5.9947 81.3624 5.97741H79.1766V8.46337L79.1773 8.46406ZM81.4426 5.20824C81.805 5.20824 82.0264 5.16397 82.2035 5.06645C82.4421 4.92465 82.5839 4.63275 82.5839 4.2703C82.5839 3.90785 82.4421 3.61595 82.2035 3.47416C82.0264 3.37663 81.805 3.33236 81.4426 3.33236H79.1773V5.20824H81.4426Z" fill="black"/>
<path d="M45.6365 19.0812L45.5127 18.2761C44.8403 18.9574 44.1853 19.232 43.2121 19.232C41.3452 19.232 40.0801 17.9932 40.0801 16.1533C40.0801 14.3134 41.3985 13.0303 43.3449 13.0303C44.2648 13.0303 45.0527 13.3132 45.5922 13.8354C45.9374 14.1806 46.1144 14.4987 46.2645 15.0563H45.3003C45.1585 14.6578 45.0257 14.4635 44.7428 14.2421C44.3624 13.9502 43.8754 13.7994 43.3269 13.7994C41.92 13.7994 40.991 14.7194 40.991 16.1C40.991 17.4807 41.92 18.4622 43.3359 18.4622C44.0878 18.4622 44.7075 18.1883 45.1053 17.6923C45.3266 17.4094 45.4324 17.1528 45.512 16.6838H43.5745V15.8607H46.3261V19.0812H45.6358H45.6365Z" fill="black"/>
<path d="M47.9629 19.0813V13.1797H52.7937V14.0028H48.8739V15.6573H52.5634V16.4805H48.8739V18.2588H52.8733V19.0819H47.9629V19.0813Z" fill="black"/>
<path d="M54.3516 19.0813V13.1797H55.2632V18.2581H58.9527V19.0813H54.3516Z" fill="black"/>
<path d="M66.3573 16.17C66.3573 17.0014 66.0302 17.8156 65.4727 18.3551C64.8889 18.9216 64.0395 19.2308 63.031 19.2308C61.0403 19.2308 59.7129 17.9919 59.7129 16.1251C59.7129 14.2582 61.0403 13.0283 63.022 13.0283C65.0037 13.0283 66.3573 14.2582 66.3573 16.1693V16.17ZM60.6239 16.1257C60.6239 17.5327 61.5791 18.4616 63.0303 18.4616C64.4815 18.4616 65.4457 17.5327 65.4457 16.161C65.4457 14.7188 64.4987 13.7989 63.0303 13.7989C61.5618 13.7989 60.6239 14.7278 60.6239 16.1257Z" fill="black"/>
<path d="M68.7818 19.0813H67.8701V13.1797H71.1259C72.4263 13.1797 73.0987 13.7372 73.0987 14.8342C73.0987 15.4803 72.8683 15.8517 72.2672 16.2142C72.878 16.5151 72.9838 16.7717 73.0371 18.1163C73.0724 18.7797 73.1346 18.9035 73.3913 18.8862V19.0806H72.2672C72.1697 18.7181 72.1697 18.6469 72.1171 17.904C72.0549 16.9128 71.79 16.6119 70.9668 16.5946H68.7818V19.0806V19.0813ZM71.0464 15.8254C71.4088 15.8254 71.6302 15.7812 71.8073 15.6836C72.0459 15.5418 72.1877 15.2499 72.1877 14.8875C72.1877 14.525 72.0459 14.2331 71.8073 14.0913C71.6302 13.9938 71.4088 13.9495 71.0464 13.9495H68.7811V15.8254H71.0464Z" fill="black"/>
<path d="M76.2047 17.3824L75.4349 19.0813H74.3994L77.142 13.1797H78.1685L80.929 19.0813H79.832L79.0621 17.3824H76.2041H76.2047ZM77.62 14.1972L76.5402 16.6126H78.717L77.62 14.1972Z" fill="black"/>
<path d="M41.9111 29.6984V24.62H39.6548V23.7969H45.0964V24.62H42.8228V29.6984H41.9111Z" fill="black"/>
<path d="M46.2729 29.6984V23.7969H51.1038V24.62H47.1839V26.2745H50.8734V27.0977H47.1839V28.876H51.1833V29.6991H46.2729V29.6984Z" fill="black"/>
<path d="M58.4918 27.3713C58.1999 28.9905 57.1471 29.8489 55.4656 29.8489C53.5282 29.8489 52.3066 28.6544 52.3066 26.7522C52.3066 24.85 53.5365 23.6465 55.4829 23.6465C56.4299 23.6465 57.208 23.9294 57.7392 24.4696C58.1107 24.85 58.314 25.2657 58.4385 25.9118H57.5186C57.3152 24.9476 56.5806 24.4163 55.4746 24.4163C54.121 24.4163 53.2183 25.3453 53.2183 26.7522C53.2183 28.1591 54.1383 29.0791 55.4836 29.0791C56.2002 29.0791 56.802 28.8135 57.1824 28.3355C57.3948 28.0616 57.4833 27.8313 57.5718 27.3713H58.4918Z" fill="black"/>
<path d="M64.4811 29.6984V26.9199H60.8711V29.6984H59.9595V23.7969H60.8711V26.1507H64.4811V23.7969H65.3928V29.6984H64.4811Z" fill="black"/>
</svg>
