<svg width="32" height="33" viewBox="0 0 32 33" fill="none" xmlns="http://www.w3.org/2000/svg">
<path d="M27.3067 15.4971L26.6385 17.503L29.8439 18.5717C29.5955 21.3018 27.876 30.3859 16.0002 30.3859C9.47199 30.3859 3.98337 25.8573 2.5066 19.7773C2.34682 19.1188 1.65996 18.7363 1.01668 18.9507L0.234375 19.2115C1.52647 26.7468 8.10174 32.5004 15.9995 32.5004C23.8973 32.5004 28.1596 28.4989 30.0016 25.1421C31.9771 21.5411 31.9999 17.974 31.9999 17.8239C31.9999 17.3688 31.7087 16.9649 31.2771 16.821L27.3067 15.4978V15.4971Z" fill="#3B43A8"/>
<path d="M30.9832 14.0483L31.7655 13.7875C30.4727 6.25285 23.8981 0.5 16.0003 0.5C8.10254 0.5 3.84031 4.50147 1.99831 7.85828C0.0228271 11.4593 0 15.0263 0 15.1764C0 15.6316 0.291205 16.0355 0.722825 16.1794L4.69317 17.5026L5.36135 15.4967L2.15602 14.428C2.40434 11.6979 4.1239 2.61383 15.9997 2.61383C22.5272 2.61383 28.0158 7.14168 29.4926 13.221C29.6524 13.8802 30.3392 14.262 30.9825 14.0476L30.9832 14.0483Z" fill="#3B43A8"/>
<path d="M9.6227 15.1374C10.396 15.3809 11.2489 15.2654 11.9046 14.7881C13.6996 13.4815 15.0795 11.6326 15.794 9.49042L16.0002 8.87066L16.2063 9.49042C17.2715 12.6854 19.8149 15.2287 23.0098 16.294L26.9705 17.6151L30.3155 16.5001L23.6787 14.288C21.1118 13.4324 19.0678 11.3884 18.2122 8.82155L16.8164 4.63471C16.5549 3.84963 15.4447 3.84963 15.1833 4.63471L13.7874 8.82155C12.9269 11.4023 10.9017 13.4276 8.32093 14.288L7.64307 14.5142L9.6227 15.1374Z" fill="#3B43A8"/>
<path d="M22.3769 17.8655C21.5669 17.6102 20.6885 17.7707 20.0071 18.277C18.2551 19.5795 16.909 21.4021 16.2063 23.5097L16.0001 24.1295L15.794 23.5111C14.7233 20.2982 12.2027 17.7776 8.98979 16.7069L5.02705 15.3857L1.68408 16.5001L8.32092 18.7121C10.9016 19.5726 12.9269 21.5979 13.7874 24.1786L15.1826 28.3654C15.444 29.1505 16.5542 29.1505 16.8157 28.3654L18.2115 24.1786C19.072 21.5979 21.0966 19.5726 23.6773 18.7121L24.351 18.4873L22.3755 17.8648L22.3769 17.8655Z" fill="#3B43A8"/>
</svg>
