<svg width="84" height="33" viewBox="0 0 84 33" fill="none" xmlns="http://www.w3.org/2000/svg">
<path d="M27.3067 15.2236L26.6385 17.2599L29.8439 18.3448C29.5955 21.1162 27.876 30.3377 16.0002 30.3377C9.47199 30.3377 3.98337 25.7407 2.5066 19.5686C2.34682 18.9002 1.65996 18.5119 1.01668 18.7295L0.234375 18.9943C1.52647 26.6437 8.10174 32.4843 15.9995 32.4843C23.8973 32.4843 28.1596 28.4222 30.0016 25.0146C31.9771 21.3592 31.9999 17.7381 31.9999 17.5857C31.9999 17.1237 31.7087 16.7136 31.2771 16.5676L27.3067 15.2243V15.2236Z" fill="white"/>
<path d="M30.9832 13.7533L31.7655 13.4886C30.4727 5.83991 23.8981 0 16.0003 0C8.10254 0 3.84031 4.06203 1.99831 7.46964C0.0228271 11.1251 0 14.7462 0 14.8985C0 15.3606 0.291205 15.7706 0.722825 15.9167L4.69317 17.2599L5.36135 15.2237L2.15602 14.1388C2.40434 11.3674 4.1239 2.14582 15.9997 2.14582C22.5272 2.14582 28.0158 6.74219 29.4926 12.9135C29.6524 13.5827 30.3392 13.9703 30.9825 13.7526L30.9832 13.7533Z" fill="white"/>
<path d="M9.6227 14.858C10.396 15.1052 11.2489 14.9879 11.9046 14.5034C13.6996 13.177 15.0795 11.3002 15.794 9.12555L16.0002 8.49641L16.2063 9.12555C17.2715 12.3689 19.8149 14.9507 23.0098 16.0321L26.9705 17.3732L30.3155 16.2413L23.6787 13.9958C21.1118 13.1272 19.0678 11.0523 18.2122 8.44656L16.8164 4.19635C16.5549 3.39939 15.4447 3.39939 15.1833 4.19635L13.7874 8.44656C12.9269 11.0663 10.9017 13.1223 8.32093 13.9958L7.64307 14.2254L9.6227 14.858Z" fill="white"/>
<path d="M22.3769 17.6276C21.5669 17.3685 20.6885 17.5314 20.0071 18.0454C18.2551 19.3676 16.909 21.2178 16.2063 23.3573L16.0001 23.9864L15.794 23.3587C14.7233 20.0971 12.2027 17.5384 8.98979 16.4515L5.02705 15.1104L1.68408 16.2415L8.32092 18.4871C10.9016 19.3606 12.9269 21.4165 13.7874 24.0363L15.1826 28.2865C15.444 29.0834 16.5542 29.0834 16.8157 28.2865L18.2115 24.0363C19.072 21.4165 21.0966 19.3606 23.6773 18.4871L24.351 18.2589L22.3755 17.6269L22.3769 17.6276Z" fill="white"/>
<path d="M44.3264 3.83558C44.3002 3.46764 44.2026 3.26963 43.964 3.08145C43.6631 2.8392 43.2474 2.72194 42.6989 2.72194C41.7436 2.72194 41.1149 3.09901 41.1149 3.66495C41.1149 3.9072 41.2477 4.12276 41.4863 4.24845C41.6897 4.36501 41.8668 4.41908 42.4153 4.51808L43.6271 4.73364C44.2642 4.8502 44.6094 4.96747 44.9013 5.18303C45.2464 5.43441 45.4498 5.85641 45.4498 6.33248C45.4498 6.95249 45.1136 7.51773 44.5561 7.84143C44.0871 8.12019 43.5649 8.23675 42.822 8.23675C41.6897 8.23675 40.8929 7.96712 40.4599 7.43769C40.168 7.07818 40.0614 6.73692 40.0352 6.06355H40.9821C40.9911 6.51293 41.0796 6.76431 41.3272 6.9883C41.6544 7.30287 42.1677 7.45524 42.858 7.45524C43.8665 7.45524 44.5035 7.05992 44.5035 6.42235C44.5035 5.9821 44.1853 5.73985 43.4328 5.60503L42.3088 5.41615C41.7423 5.30802 41.265 5.18233 40.9731 5.04751C40.5041 4.82282 40.2032 4.31094 40.2032 3.73657C40.2032 2.61381 41.1502 1.94043 42.7072 1.94043C43.5123 1.94043 44.1494 2.10193 44.5651 2.4165C44.9988 2.74862 45.1759 3.11726 45.2464 3.83558H44.3264Z" fill="white"/>
<path d="M48.5293 8.08365V2.92835H46.2729V2.09277H51.7145V2.92835H49.4409V8.08365H48.5293Z" fill="white"/>
<path d="M52.8911 8.08365V2.09277H57.7219V2.92835H53.8021V4.60793H57.4916V5.44351H53.8021V7.24878H57.8015V8.08435H52.8911V8.08365Z" fill="white"/>
<path d="M59.2788 8.08365V2.09277H60.1905V7.24807H63.88V8.08365H59.2788Z" fill="white"/>
<path d="M65.1274 8.08365V2.09277H66.0391V7.24807H69.7286V8.08365H65.1274Z" fill="white"/>
<path d="M72.4533 6.35913L71.6834 8.08365H70.6479L73.3905 2.09277H74.417L77.1776 8.08365H76.0805L75.3107 6.35913H72.4526H72.4533ZM73.8685 3.12636L72.7887 5.57832H74.9655L73.8685 3.12636Z" fill="white"/>
<path d="M79.1773 8.08365H78.2656V2.09277H81.5214C82.8218 2.09277 83.4942 2.65872 83.4942 3.77235C83.4942 4.42818 83.2638 4.80524 82.6627 5.17317C83.2735 5.47862 83.3793 5.73912 83.4326 7.10413C83.4679 7.77751 83.5301 7.90319 83.7868 7.88564V8.08295H82.6627C82.5652 7.71501 82.5652 7.64269 82.5126 6.88856C82.4504 5.88236 82.1855 5.57692 81.3624 5.55936H79.1766V8.08295L79.1773 8.08365ZM81.4426 4.77856C81.805 4.77856 82.0264 4.73362 82.2035 4.63461C82.4421 4.49067 82.5839 4.19436 82.5839 3.82642C82.5839 3.45849 82.4421 3.16217 82.2035 3.01823C82.0264 2.91922 81.805 2.87428 81.4426 2.87428H79.1773V4.77856H81.4426Z" fill="white"/>
<path d="M45.6365 18.8623L45.5127 18.045C44.8403 18.7366 44.1853 19.0153 43.2121 19.0153C41.3452 19.0153 40.0801 17.7578 40.0801 15.89C40.0801 14.0222 41.3985 12.7197 43.3449 12.7197C44.2648 12.7197 45.0527 13.0069 45.5922 13.537C45.9374 13.8874 46.1144 14.2104 46.2645 14.7764H45.3003C45.1585 14.3719 45.0257 14.1746 44.7428 13.9499C44.3624 13.6536 43.8754 13.5005 43.3269 13.5005C41.92 13.5005 40.991 14.4344 40.991 15.8359C40.991 17.2375 41.92 18.2338 43.3359 18.2338C44.0878 18.2338 44.7075 17.9558 45.1053 17.4523C45.3266 17.1651 45.4324 16.9046 45.512 16.4286H43.5745V15.593H46.3261V18.8623H45.6358H45.6365Z" fill="white"/>
<path d="M47.9629 18.862V12.8711H52.7937V13.7067H48.8739V15.3863H52.5634V16.2218H48.8739V18.0271H52.8733V18.8627H47.9629V18.862Z" fill="white"/>
<path d="M54.3516 18.862V12.8711H55.2632V18.0264H58.9527V18.862H54.3516Z" fill="white"/>
<path d="M66.3573 15.907C66.3573 16.751 66.0302 17.5775 65.4727 18.1252C64.8889 18.7002 64.0395 19.0141 63.031 19.0141C61.0403 19.0141 59.7129 17.7565 59.7129 15.8614C59.7129 13.9662 61.0403 12.7178 63.022 12.7178C65.0037 12.7178 66.3573 13.9662 66.3573 15.9063V15.907ZM60.6239 15.8621C60.6239 17.2903 61.5791 18.2333 63.0303 18.2333C64.4815 18.2333 65.4457 17.2903 65.4457 15.8979C65.4457 14.4339 64.4987 13.5 63.0303 13.5C61.5618 13.5 60.6239 14.443 60.6239 15.8621Z" fill="white"/>
<path d="M68.7818 18.862H67.8701V12.8711H71.1259C72.4263 12.8711 73.0987 13.437 73.0987 14.5507C73.0987 15.2065 72.8683 15.5836 72.2672 15.9515C72.878 16.2569 72.9838 16.5174 73.0371 17.8824C73.0724 18.5558 73.1346 18.6815 73.3913 18.664V18.8613H72.2672C72.1697 18.4933 72.1697 18.421 72.1171 17.6669C72.0549 16.6607 71.79 16.3552 70.9668 16.3377H68.7818V18.8613V18.862ZM71.0464 15.5569C71.4088 15.5569 71.6302 15.5119 71.8073 15.4129C72.0459 15.269 72.1877 14.9727 72.1877 14.6047C72.1877 14.2368 72.0459 13.9405 71.8073 13.7965C71.6302 13.6975 71.4088 13.6526 71.0464 13.6526H68.7811V15.5569H71.0464Z" fill="white"/>
<path d="M76.2047 17.1375L75.4349 18.862H74.3994L77.142 12.8711H78.1685L80.929 18.862H79.832L79.0621 17.1375H76.2041H76.2047ZM77.62 13.904L76.5402 16.3559H78.717L77.62 13.904Z" fill="white"/>
<path d="M41.9111 29.6393V24.484H39.6548V23.6484H45.0964V24.484H42.8228V29.6393H41.9111Z" fill="white"/>
<path d="M46.2729 29.6393V23.6484H51.1038V24.484H47.1839V26.1636H50.8734V26.9992H47.1839V28.8044H51.1833V29.64H46.2729V29.6393Z" fill="white"/>
<path d="M58.4918 27.2773C58.1999 28.921 57.1471 29.7924 55.4656 29.7924C53.5282 29.7924 52.3066 28.5798 52.3066 26.6488C52.3066 24.7179 53.5365 23.4961 55.4829 23.4961C56.4299 23.4961 57.208 23.7833 57.7392 24.3317C58.1107 24.7179 58.314 25.1399 58.4385 25.7957H57.5186C57.3152 24.8169 56.5806 24.2776 55.4746 24.2776C54.121 24.2776 53.2183 25.2206 53.2183 26.6488C53.2183 28.077 54.1383 29.0109 55.4836 29.0109C56.2002 29.0109 56.802 28.7413 57.1824 28.2561C57.3948 27.978 57.4833 27.7442 57.5718 27.2773H58.4918Z" fill="white"/>
<path d="M64.4811 29.6393V26.8187H60.8711V29.6393H59.9595V23.6484H60.8711V26.0379H64.4811V23.6484H65.3928V29.6393H64.4811Z" fill="white"/>
</svg>
