<svg width="40" height="40" viewBox="0 0 40 40" fill="none" xmlns="http://www.w3.org/2000/svg">
<g clip-path="url(#clip0_4234_2402)">
<path d="M31.25 40C33.5706 40 35.7962 39.0781 37.4372 37.4372C39.0781 35.7962 40 33.5706 40 31.25C40 28.9294 39.0781 26.7038 37.4372 25.0628C35.7962 23.4219 33.5706 22.5 31.25 22.5C28.9294 22.5 26.7038 23.4219 25.0628 25.0628C23.4219 26.7038 22.5 28.9294 22.5 31.25C22.5 33.5706 23.4219 35.7962 25.0628 37.4372C26.7038 39.0781 28.9294 40 31.25 40ZM35.4475 28.7675L32.11 34.3325C31.9633 34.577 31.7628 34.7848 31.5238 34.9402C31.2847 35.0955 31.0134 35.1943 30.7304 35.229C30.4474 35.2637 30.1602 35.2334 29.8907 35.1405C29.6212 35.0475 29.3764 34.8943 29.175 34.6925L27.24 32.76C27.0053 32.5253 26.8734 32.2069 26.8734 31.875C26.8734 31.5431 27.0053 31.2247 27.24 30.99C27.4747 30.7553 27.7931 30.6234 28.125 30.6234C28.4569 30.6234 28.7753 30.7553 29.01 30.99L30.3775 32.36L33.3025 27.4825C33.3869 27.3417 33.4982 27.2188 33.63 27.121C33.7619 27.0231 33.9117 26.9522 34.0709 26.9123C34.2302 26.8724 34.3958 26.8642 34.5582 26.8883C34.7206 26.9123 34.8767 26.9681 35.0175 27.0525C35.1583 27.1369 35.2812 27.2482 35.379 27.38C35.4769 27.5119 35.5478 27.6617 35.5877 27.8209C35.6276 27.9802 35.6358 28.1458 35.6117 28.3082C35.5877 28.4706 35.5319 28.6267 35.4475 28.7675ZM20 2.5C16.0675 2.5 12.445 3.2225 9.76 4.4425C7.1875 5.6125 5 7.4825 5 10C5 12.5175 7.1875 14.3875 9.76 15.5575C12.445 16.7775 16.0675 17.5 20 17.5C23.9325 17.5 27.555 16.7775 30.24 15.5575C32.8125 14.3875 35 12.5175 35 10C35 7.4825 32.8125 5.6125 30.24 4.4425C27.555 3.2225 23.9325 2.5 20 2.5Z" fill="#293591"/>
<path d="M5 17.4998V15.4023C6.1425 16.4823 7.51 17.2798 8.725 17.8323C11.805 19.2323 15.795 19.9998 20 19.9998C24.205 19.9998 28.195 19.2323 31.275 17.8323C32.49 17.2823 33.8575 16.4823 35 15.4023V17.4998C35 18.5598 34.6125 19.5048 33.9725 20.3323C31.7356 19.7781 29.3827 19.9226 27.2305 20.7464C25.0782 21.5702 23.2301 23.0337 21.935 24.9398C21.2908 24.9807 20.6455 25.0007 20 24.9998C16.0675 24.9998 12.445 24.2773 9.76 23.0573C7.1875 21.8873 5 20.0173 5 17.4998ZM20.6425 27.4948L20 27.4998C15.795 27.4998 11.805 26.7323 8.725 25.3323C7.51 24.7823 6.1425 23.9823 5 22.9023V24.9998C5 27.5173 7.1875 29.3873 9.76 30.5573C12.445 31.7773 16.0675 32.4998 20 32.4998H20.0675C19.8827 30.8095 20.0792 29.0992 20.6425 27.4948ZM20.6375 34.9948L20 34.9998C15.795 34.9998 11.805 34.2323 8.725 32.8323C7.51 32.2823 6.1425 31.4823 5 30.4023V32.4998C5 35.0173 7.1875 36.8873 9.76 38.0573C12.445 39.2773 16.0675 39.9998 20 39.9998C21.34 39.9998 22.645 39.9148 23.8875 39.7573C22.4088 38.4791 21.2887 36.8377 20.6375 34.9948Z" fill="#293591"/>
</g>
<defs>
<clipPath id="clip0_4234_2402">
<rect width="40" height="40" fill="white"/>
</clipPath>
</defs>
</svg>
