<svg width="40" height="40" viewBox="0 0 40 40" fill="none" xmlns="http://www.w3.org/2000/svg">
<g clip-path="url(#clip0_4234_2407)">
<path d="M0 5C0 3.67392 0.526784 2.40215 1.46447 1.46447C2.40215 0.526784 3.67392 0 5 0L25 0C26.3261 0 27.5979 0.526784 28.5355 1.46447C29.4732 2.40215 30 3.67392 30 5V10H35C36.3261 10 37.5979 10.5268 38.5355 11.4645C39.4732 12.4021 40 13.6739 40 15V35C40 36.3261 39.4732 37.5979 38.5355 38.5355C37.5979 39.4732 36.3261 40 35 40H15C13.6739 40 12.4021 39.4732 11.4645 38.5355C10.5268 37.5979 10 36.3261 10 35V30H5C3.67392 30 2.40215 29.4732 1.46447 28.5355C0.526784 27.5979 0 26.3261 0 25V5ZM30 10H12.5C11.837 10 11.2011 10.2634 10.7322 10.7322C10.2634 11.2011 10 11.837 10 12.5V30H27.5C28.163 30 28.7989 29.7366 29.2678 29.2678C29.7366 28.7989 30 28.163 30 27.5V10Z" fill="#293591"/>
</g>
<defs>
<clipPath id="clip0_4234_2407">
<rect width="40" height="40" fill="white"/>
</clipPath>
</defs>
</svg>
