<svg width="41" height="40" viewBox="0 0 41 40" fill="none" xmlns="http://www.w3.org/2000/svg">
<g clip-path="url(#clip0_4107_3047)">
<path d="M10.6665 15H15.6665V22.5H10.6665V15Z" fill="#293591"/>
<path d="M18.1665 12.5H23.1665V22.5H18.1665V12.5Z" fill="#293591"/>
<path d="M25.6665 10H30.6665V22.4987H25.6665V10Z" fill="#293591"/>
<path d="M36.9165 2.5H4.41648C2.3486 2.5 0.666504 4.18209 0.666504 6.24998V28.75C0.666504 30.8178 2.3486 32.4999 4.41648 32.4999H13.1665V35H10.6665V37.5H30.6665V35H28.1665V32.4999H36.9165C38.9844 32.4999 40.6665 30.8178 40.6665 28.75V6.24998C40.6665 4.18209 38.9844 2.5 36.9165 2.5ZM20.6665 30C19.9762 30 19.4166 29.4403 19.4166 28.75C19.4166 28.0596 19.9763 27.5001 20.6665 27.5001C21.3569 27.5001 21.9165 28.0596 21.9165 28.75C21.9165 29.4403 21.3568 30 20.6665 30ZM35.6666 25H5.66654V7.49994H35.6666V25Z" fill="#293591"/>
</g>
<defs>
<clipPath id="clip0_4107_3047">
<rect width="40" height="40" fill="white" transform="translate(0.666504)"/>
</clipPath>
</defs>
</svg>
