<svg width="40" height="33" viewBox="0 0 40 33" fill="none" xmlns="http://www.w3.org/2000/svg">
<path d="M38.2799 12.75C38.0095 12.1516 37.7086 11.5675 37.3783 11L33.1233 22.5583C32.961 22.9902 32.725 23.3906 32.4258 23.7417C33.5679 23.6286 34.6685 23.2533 35.6418 22.6449C36.615 22.0366 37.4346 21.2117 38.0366 20.2345C38.6387 19.2574 39.0069 18.1543 39.1125 17.0115C39.2182 15.8686 39.0585 14.7168 38.6458 13.6458C38.5324 13.3408 38.4108 13.0442 38.2799 12.75Z" fill="#293591"/>
<path d="M13.8584 2.33338C11.3756 3.21716 9.09664 4.59282 7.15795 6.37801C5.21926 8.16319 3.6607 10.3212 2.57558 12.7228C1.49045 15.1245 0.901061 17.7204 0.842696 20.3552C0.784331 22.9899 1.25819 25.6094 2.2359 28.0567C2.26174 28.1092 2.27924 28.1609 2.30507 28.2134C2.8245 29.4538 3.67017 30.5304 4.75228 31.3289C5.8344 32.1273 7.11255 32.6178 8.45101 32.7482C9.78947 32.8786 11.1383 32.6441 12.3542 32.0695C13.57 31.495 14.6076 30.6019 15.3567 29.485C16.9235 27.125 19.1727 25.2987 21.8042 24.25C21.8876 24.2167 21.9709 24.1917 22.0542 24.1609C22.3505 23.4774 22.7914 22.8662 23.3466 22.3694C23.9017 21.8727 24.558 21.5022 25.2701 21.2834C25.2527 20.6558 25.3814 20.0328 25.6459 19.4634L32.2292 5.20755C29.6433 3.24727 26.6117 1.95868 23.4058 1.4571C20.1998 0.955518 16.9195 1.25659 13.8584 2.33338ZM8.75007 24.0834C8.0908 24.0834 7.44633 23.8879 6.89817 23.5216C6.35 23.1553 5.92276 22.6347 5.67047 22.0257C5.41818 21.4166 5.35217 20.7464 5.48078 20.0997C5.6094 19.4531 5.92687 18.8592 6.39305 18.393C6.85922 17.9269 7.45316 17.6094 8.09977 17.4808C8.74637 17.3521 9.41659 17.4182 10.0257 17.6705C10.6348 17.9227 11.1554 18.35 11.5216 18.8981C11.8879 19.4463 12.0834 20.0908 12.0834 20.75C12.0834 21.6341 11.7322 22.4819 11.1071 23.1071C10.482 23.7322 9.63412 24.0834 8.75007 24.0834ZM12.9167 14.5C12.2575 14.5 11.613 14.3046 11.0648 13.9383C10.5167 13.572 10.0894 13.0514 9.83714 12.4423C9.58484 11.8332 9.51883 11.163 9.64745 10.5164C9.77607 9.86981 10.0935 9.27587 10.5597 8.80969C11.0259 8.34352 11.6198 8.02605 12.2664 7.89743C12.913 7.76881 13.5833 7.83482 14.1923 8.08712C14.8014 8.33941 15.322 8.76665 15.6883 9.31481C16.0546 9.86298 16.2501 10.5074 16.2501 11.1667C16.2501 12.0508 15.8989 12.8986 15.2738 13.5237C14.6486 14.1489 13.8008 14.5 12.9167 14.5ZM22.9167 11.5834C22.2575 11.5834 21.613 11.3879 21.0648 11.0216C20.5167 10.6553 20.0894 10.1347 19.8371 9.52566C19.5848 8.91657 19.5188 8.24635 19.6474 7.59975C19.7761 6.95314 20.0935 6.3592 20.5597 5.89302C21.0259 5.42685 21.6198 5.10938 22.2664 4.98076C22.913 4.85215 23.5833 4.91816 24.1923 5.17045C24.8014 5.42274 25.322 5.84998 25.6883 6.39815C26.0546 6.94631 26.2501 7.59078 26.2501 8.25005C26.2501 9.1341 25.8989 9.98195 25.2738 10.6071C24.6486 11.2322 23.8008 11.5834 22.9167 11.5834Z" fill="#293591"/>
<path d="M37.8983 0.459251C37.5285 0.305678 37.1137 0.301305 36.7408 0.447049C36.3679 0.592793 36.0659 0.877322 35.8983 1.24092L27.1616 20.1618C26.9604 20.597 26.8954 21.0828 26.9749 21.5557C27.0545 22.0285 27.2749 22.4663 27.6074 22.8118C26.7953 22.6213 25.9419 22.7254 25.1994 23.1056C24.4569 23.4858 23.8735 24.1173 23.5533 24.8876C22.2041 28.1459 24.3383 29.5751 22.9883 32.8334C24.5273 32.6615 25.9934 32.0852 27.2375 31.163C28.4816 30.2409 29.4595 29.0059 30.0716 27.5834C30.3598 26.883 30.4141 26.1082 30.2264 25.3743C30.0387 24.6405 29.6191 23.987 29.0299 23.5109C29.5627 23.5796 30.1031 23.4656 30.5628 23.1876C31.0224 22.9095 31.3742 22.4839 31.5608 21.9801L38.7608 2.42092C38.8975 2.0458 38.8841 1.63239 38.7234 1.2669C38.5627 0.901414 38.2671 0.612081 37.8983 0.459251Z" fill="#293591"/>
</svg>
