<svg width="40" height="40" viewBox="0 0 40 40" fill="none" xmlns="http://www.w3.org/2000/svg">
<path d="M24.5704 7.5H34.5254C35.2202 7.49993 35.9074 7.64466 36.5431 7.92498C37.1789 8.20529 37.7492 8.61503 38.2178 9.12805C38.6863 9.64108 39.0428 10.2461 39.2645 10.9046C39.4862 11.5631 39.5682 12.2606 39.5054 12.9525L37.9129 30.4525C37.8 31.6948 37.2268 32.85 36.3059 33.6914C35.3849 34.5328 34.1828 34.9995 32.9354 35H7.06287C5.81546 34.9995 4.61329 34.5328 3.69236 33.6914C2.77143 32.85 2.19826 31.6948 2.08537 30.4525L0.492868 12.9525C0.388461 11.7946 0.690794 10.6366 1.34787 9.6775L1.25037 7.5C1.25037 6.17392 1.77715 4.90215 2.71483 3.96447C3.65252 3.02678 4.92429 2.5 6.25037 2.5H15.4304C16.7563 2.50028 18.0279 3.02725 18.9654 3.965L21.0354 6.035C21.9728 6.97275 23.2444 7.49972 24.5704 7.5ZM3.76537 7.8C4.30203 7.60167 4.87204 7.50167 5.47537 7.5H18.9654L17.1979 5.7325C16.7291 5.26363 16.0934 5.00014 15.4304 5H6.25037C5.59548 4.99988 4.96668 5.25674 4.49919 5.71536C4.03169 6.17398 3.76281 6.79773 3.75037 7.4525L3.76537 7.8Z" fill="#293591"/>
</svg>
