<svg width="40" height="40" viewBox="0 0 40 40" fill="none" xmlns="http://www.w3.org/2000/svg">
<g clip-path="url(#clip0_4107_3033)">
<path fill-rule="evenodd" clip-rule="evenodd" d="M32.7541 30.9889L27.4161 27.9072C26.3788 27.3084 25.0404 27.6651 24.4419 28.7034L24.2312 29.0688C23.6979 29.994 22.8773 30.5837 21.8313 30.798C20.7895 31.0114 19.7958 30.7879 18.9452 30.1498C17.1993 28.84 15.5499 27.3937 14.0068 25.8506C12.464 24.3078 11.0177 22.6587 9.70827 20.9129C9.07007 20.062 8.84593 19.0683 9.05936 18.0262C9.27358 16.9803 9.86452 16.161 10.7891 15.6273L11.1542 15.4167C11.6605 15.1245 12.015 14.6571 12.1664 14.0929C12.3171 13.5313 12.2423 12.9464 11.9514 12.4426L8.86936 7.10459C8.3221 6.1567 7.1928 5.78053 6.17679 6.17045L6.11046 6.19592C5.06327 6.59764 2.1771 7.65186 1.40147 8.42748C-0.892199 10.7212 0.0892074 14.8708 1.11249 17.5113C2.9046 22.1358 6.30405 26.5869 9.7878 30.0702C13.2711 33.5531 17.7219 36.9536 22.346 38.7456C23.9504 39.3673 25.7558 39.8581 27.4877 39.8581C28.9373 39.8581 30.3801 39.5072 31.4306 38.4566C32.17 37.7172 33.2666 34.7407 33.6685 33.7299L33.6944 33.6648C34.0955 32.6558 33.6916 31.5301 32.7541 30.9889ZM31.1099 10.0487C31.6146 10.2296 31.9512 10.7084 31.9512 11.2443V17.3225H32.1878C32.8887 17.3225 33.4578 17.8916 33.4578 18.5925C33.4578 19.2941 32.8894 19.8625 32.1878 19.8625H31.9512V21.2684C31.9512 21.9701 31.3821 22.538 30.6812 22.538C29.9799 22.538 29.4115 21.9701 29.4115 21.2684V19.8625H24.6337C24.1424 19.8625 23.695 19.579 23.4853 19.1354C23.2756 18.6909 23.3408 18.1656 23.6526 17.7863L29.7002 10.4369C30.0405 10.0233 30.6051 9.86795 31.1099 10.0487ZM29.4115 17.3226H27.3238L29.4115 14.7859V17.3226ZM20.8041 14.8151C21.0374 13.9603 20.9004 13.3237 20.3945 12.9235C19.8063 12.4585 18.8269 12.3761 18.1641 12.737C17.6871 12.9969 17.4853 13.4349 17.5463 14.077C17.614 14.7753 17.1026 15.3961 16.4044 15.4627C15.7057 15.5304 15.0861 15.0183 15.0187 14.3208C14.858 12.652 15.5616 11.2614 16.9487 10.5058C18.5126 9.65522 20.578 9.82967 21.9708 10.9323C23.2909 11.9765 23.759 13.6363 23.2543 15.484C22.9106 16.7432 21.7214 17.6703 20.4637 18.6527C19.9269 19.0713 19.3562 19.5165 18.8388 19.9984H22.5291C23.2304 19.9984 23.7987 20.5675 23.7987 21.2684C23.7987 21.9701 23.2304 22.538 22.5291 22.538H16.2535C15.8162 22.538 15.4092 22.3133 15.1771 21.9427C14.9446 21.5724 14.9202 21.1078 15.1108 20.7143C15.975 18.934 17.5973 17.6676 18.9007 16.6504C19.6944 16.0304 20.6824 15.2595 20.8041 14.8151ZM40 16.6822C40 21.1 38.2792 25.253 35.1555 28.3771C34.9072 28.6246 34.5826 28.7493 34.2573 28.7493C33.9326 28.7493 33.6069 28.6246 33.3594 28.3771C32.8633 27.881 32.8633 27.0767 33.3594 26.5807C36.0032 23.9369 37.46 20.4212 37.46 16.6822C37.46 8.96217 31.1799 2.68209 23.4598 2.68209C19.7205 2.68209 16.2051 4.13857 13.5611 6.78232C13.065 7.27842 12.2611 7.27842 11.765 6.78232C11.2689 6.28623 11.2689 5.48232 11.765 4.98623C14.8891 1.86287 19.0421 0.14209 23.4598 0.14209C32.5798 0.142168 40 7.56193 40 16.6822Z" fill="#293591"/>
</g>
<defs>
<clipPath id="clip0_4107_3033">
<rect width="40" height="40" fill="white"/>
</clipPath>
</defs>
</svg>
