<svg width="41" height="40" viewBox="0 0 41 40" fill="none" xmlns="http://www.w3.org/2000/svg">
<g clip-path="url(#clip0_4252_4058)">
<path d="M19.657 18.2601C19.9635 18.4356 20.2182 18.6889 20.3953 18.9945C20.5725 19.3 20.6658 19.6469 20.6658 20.0001C20.6658 20.3533 20.5725 20.7002 20.3953 21.0058C20.2182 21.3113 19.9635 21.5646 19.657 21.7401L3.74949 30.9701C2.44949 31.7251 0.666992 30.8626 0.666992 29.2301V10.7701C0.666992 9.13762 2.44949 8.27512 3.74949 9.03012L19.657 18.2601Z" fill="#293591"/>
<path d="M39.657 18.2601C39.9635 18.4356 40.2182 18.6889 40.3954 18.9945C40.5725 19.3 40.6658 19.6469 40.6658 20.0001C40.6658 20.3533 40.5725 20.7002 40.3954 21.0058C40.2182 21.3113 39.9635 21.5646 39.657 21.7401L23.7495 30.9701C22.4495 31.7251 20.667 30.8626 20.667 29.2301V10.7701C20.667 9.13762 22.4495 8.27512 23.7495 9.03012L39.657 18.2601Z" fill="#293591"/>
</g>
<defs>
<clipPath id="clip0_4252_4058">
<rect width="40" height="40" fill="white" transform="translate(0.666992)"/>
</clipPath>
</defs>
</svg>
