<svg width="41" height="40" viewBox="0 0 41 40" fill="none" xmlns="http://www.w3.org/2000/svg">
<g clip-path="url(#clip0_4252_4063)">
<path d="M31.9405 37.5C35.2805 37.5 37.833 34.6125 37.833 31.25V12.5H2.83301V31.25C2.83301 34.6125 5.38551 37.5 8.72551 37.5H31.9405ZM14.083 17.5H26.583C26.9145 17.5 27.2325 17.6317 27.4669 17.8661C27.7013 18.1005 27.833 18.4185 27.833 18.75C27.833 19.0815 27.7013 19.3995 27.4669 19.6339C27.2325 19.8683 26.9145 20 26.583 20H14.083C13.7515 20 13.4335 19.8683 13.1991 19.6339C12.9647 19.3995 12.833 19.0815 12.833 18.75C12.833 18.4185 12.9647 18.1005 13.1991 17.8661C13.4335 17.6317 13.7515 17.5 14.083 17.5ZM2.33301 2.5C1.80257 2.5 1.29387 2.71071 0.918794 3.08579C0.543721 3.46086 0.333008 3.96957 0.333008 4.5L0.333008 7.5C0.333008 8.03043 0.543721 8.53914 0.918794 8.91421C1.29387 9.28929 1.80257 9.5 2.33301 9.5H38.333C38.8634 9.5 39.3721 9.28929 39.7472 8.91421C40.1223 8.53914 40.333 8.03043 40.333 7.5V4.5C40.333 3.96957 40.1223 3.46086 39.7472 3.08579C39.3721 2.71071 38.8634 2.5 38.333 2.5H2.33301Z" fill="#293591"/>
</g>
<defs>
<clipPath id="clip0_4252_4063">
<rect width="40" height="40" fill="white" transform="translate(0.333008)"/>
</clipPath>
</defs>
</svg>
