<svg width="41" height="40" viewBox="0 0 41 40" fill="none" xmlns="http://www.w3.org/2000/svg">
<g clip-path="url(#clip0_4252_4056)">
<path d="M0.666992 5C0.666992 3.67392 1.19378 2.40215 2.13146 1.46447C3.06914 0.526784 4.34091 0 5.66699 0L35.667 0C36.9931 0 38.2648 0.526784 39.2025 1.46447C40.1402 2.40215 40.667 3.67392 40.667 5V35C40.667 36.3261 40.1402 37.5979 39.2025 38.5355C38.2648 39.4732 36.9931 40 35.667 40H5.66699C4.34091 40 3.06914 39.4732 2.13146 38.5355C1.19378 37.5979 0.666992 36.3261 0.666992 35V5ZM22.992 16.47L17.267 17.1875L17.062 18.1375L18.187 18.345C18.922 18.52 19.067 18.785 18.907 19.5175L17.062 28.1875C16.577 30.43 17.3245 31.485 19.082 31.485C20.4445 31.485 22.027 30.855 22.7445 29.99L22.9645 28.95C22.4645 29.39 21.7345 29.565 21.2495 29.565C20.562 29.565 20.312 29.0825 20.4895 28.2325L22.992 16.47ZM20.667 13.75C21.33 13.75 21.9659 13.4866 22.4348 13.0178C22.9036 12.5489 23.167 11.913 23.167 11.25C23.167 10.587 22.9036 9.95107 22.4348 9.48223C21.9659 9.01339 21.33 8.75 20.667 8.75C20.004 8.75 19.3681 9.01339 18.8992 9.48223C18.4304 9.95107 18.167 10.587 18.167 11.25C18.167 11.913 18.4304 12.5489 18.8992 13.0178C19.3681 13.4866 20.004 13.75 20.667 13.75Z" fill="#293591"/>
</g>
<defs>
<clipPath id="clip0_4252_4056">
<rect width="40" height="40" fill="white" transform="translate(0.666992)"/>
</clipPath>
</defs>
</svg>
