<svg width="40" height="40" viewBox="0 0 40 40" fill="none" xmlns="http://www.w3.org/2000/svg">
<path d="M5 35C3.67392 35 2.40215 34.4732 1.46447 33.5355C0.526784 32.5979 0 31.3261 0 30V10C0 8.67392 0.526784 7.40215 1.46447 6.46447C2.40215 5.52678 3.67392 5 5 5H35C36.3261 5 37.5979 5.52678 38.5355 6.46447C39.4732 7.40215 40 8.67392 40 10V30C40 31.3261 39.4732 32.5979 38.5355 33.5355C37.5979 34.4732 36.3261 35 35 35H5ZM32.5 17.5C31.837 17.5 31.2011 17.7634 30.7322 18.2322C30.2634 18.7011 30 19.337 30 20C30 20.663 30.2634 21.2989 30.7322 21.7678C31.2011 22.2366 31.837 22.5 32.5 22.5C33.163 22.5 33.7989 22.2366 34.2678 21.7678C34.7366 21.2989 35 20.663 35 20C35 19.337 34.7366 18.7011 34.2678 18.2322C33.7989 17.7634 33.163 17.5 32.5 17.5Z" fill="white"/>
</svg>
