<svg width="41" height="40" viewBox="0 0 41 40" fill="none" xmlns="http://www.w3.org/2000/svg">
<path d="M27.3991 12.5C26.0803 6.375 23.2678 2.5 20.6666 2.5C18.0653 2.5 15.2528 6.375 13.9341 12.5H27.3991Z" fill="#293591"/>
<path d="M13.1665 20C13.1662 21.6722 13.2777 23.3426 13.5003 25H27.8328C28.0553 23.3426 28.1668 21.6722 28.1665 20C28.1668 18.3278 28.0553 16.6574 27.8328 15H13.5003C13.2777 16.6574 13.1662 18.3278 13.1665 20Z" fill="#293591"/>
<path d="M13.9341 27.5C15.2528 33.625 18.0653 37.5 20.6666 37.5C23.2678 37.5 26.0803 33.625 27.3991 27.5H13.9341Z" fill="#293591"/>
<path d="M29.9592 12.4998H37.8342C36.651 9.80699 34.8531 7.42897 32.5849 5.55646C30.3166 3.68395 27.6411 2.36907 24.7729 1.71729C27.1442 3.80354 29.0042 7.66104 29.9592 12.4998Z" fill="#293591"/>
<path d="M38.7327 15H30.3577C30.5639 16.6587 30.667 18.3286 30.6664 20C30.6666 21.6715 30.5631 23.3413 30.3564 25H38.7314C39.643 21.729 39.6443 18.271 38.7327 15Z" fill="#293591"/>
<path d="M24.7729 38.2825C27.6416 37.6311 30.3176 36.3164 32.5863 34.4438C34.855 32.5713 36.6532 30.1931 37.8367 27.5H29.9617C29.0042 32.3387 27.1442 36.1962 24.7729 38.2825Z" fill="#293591"/>
<path d="M11.374 27.5H3.49902C4.68251 30.1931 6.48074 32.5713 8.74944 34.4438C11.0181 36.3164 13.6941 37.6311 16.5628 38.2825C14.189 36.1962 12.329 32.3387 11.374 27.5Z" fill="#293591"/>
<path d="M16.5603 1.71729C13.6917 2.36871 11.0157 3.68343 8.747 5.55596C6.4783 7.42849 4.68007 9.8067 3.49658 12.4998H11.3716C12.3291 7.66104 14.1891 3.80354 16.5603 1.71729Z" fill="#293591"/>
<path d="M10.6667 20C10.6665 18.3285 10.77 16.6587 10.9767 15H2.60166C1.69007 18.271 1.69007 21.729 2.60166 25H10.9767C10.77 23.3413 10.6665 21.6715 10.6667 20Z" fill="#293591"/>
</svg>
