<svg width="36" height="36" viewBox="0 0 36 36" fill="none" xmlns="http://www.w3.org/2000/svg">
<path d="M35.9168 31.3335V33.0002C35.9168 34.6082 34.6082 35.9168 33.0002 35.9168H3.00016C1.39216 35.9168 0.0834961 34.6082 0.0834961 33.0002V31.3335C0.0834961 29.7255 1.39216 28.4168 3.00016 28.4168H33.0002C34.6082 28.4168 35.9168 29.7255 35.9168 31.3335ZM32.756 15.9722C32.5745 14.5155 31.3302 13.4168 29.8622 13.4168H24.2502V9.25016H28.0002C29.6082 9.25016 30.9168 7.9415 30.9168 6.3335V3.00016C30.9168 1.39216 29.6082 0.0834961 28.0002 0.0834961H18.0002C16.3922 0.0834961 15.0835 1.39216 15.0835 3.00016V6.3335C15.0835 7.9415 16.3922 9.25016 18.0002 9.25016H21.7502V13.4168H6.13816C4.67 13.4168 3.42583 14.5155 3.24433 15.9713L2.001 25.9168H33.9995L32.756 15.9722Z" fill="#293591"/>
</svg>
