<svg width="41" height="40" viewBox="0 0 41 40" fill="none" xmlns="http://www.w3.org/2000/svg">
<g clip-path="url(#clip0_4252_4039)">
<path d="M0.333008 32.5C0.333008 33.4946 0.728096 34.4484 1.43136 35.1516C2.13462 35.8549 3.08845 36.25 4.08301 36.25H36.583C37.5776 36.25 38.5314 35.8549 39.2347 35.1516C39.9379 34.4484 40.333 33.4946 40.333 32.5V15C40.333 14.0054 39.9379 13.0516 39.2347 12.3483C38.5314 11.6451 37.5776 11.25 36.583 11.25H4.08301C3.08845 11.25 2.13462 11.6451 1.43136 12.3483C0.728096 13.0516 0.333008 14.0054 0.333008 15L0.333008 32.5ZM5.33301 7.5C5.33301 7.83152 5.4647 8.14946 5.69912 8.38388C5.93355 8.6183 6.25149 8.75 6.58301 8.75H34.083C34.4145 8.75 34.7325 8.6183 34.9669 8.38388C35.2013 8.14946 35.333 7.83152 35.333 7.5C35.333 7.16848 35.2013 6.85054 34.9669 6.61612C34.7325 6.3817 34.4145 6.25 34.083 6.25H6.58301C6.25149 6.25 5.93355 6.3817 5.69912 6.61612C5.4647 6.85054 5.33301 7.16848 5.33301 7.5ZM10.333 2.5C10.333 2.83152 10.4647 3.14946 10.6991 3.38388C10.9335 3.6183 11.2515 3.75 11.583 3.75H29.083C29.4145 3.75 29.7325 3.6183 29.9669 3.38388C30.2013 3.14946 30.333 2.83152 30.333 2.5C30.333 2.16848 30.2013 1.85054 29.9669 1.61612C29.7325 1.3817 29.4145 1.25 29.083 1.25H11.583C11.2515 1.25 10.9335 1.3817 10.6991 1.61612C10.4647 1.85054 10.333 2.16848 10.333 2.5Z" fill="#293591"/>
</g>
<defs>
<clipPath id="clip0_4252_4039">
<rect width="40" height="40" fill="white" transform="translate(0.333008)"/>
</clipPath>
</defs>
</svg>
