<svg width="41" height="40" viewBox="0 0 41 40" fill="none" xmlns="http://www.w3.org/2000/svg">
<g clip-path="url(#clip0_4107_3159)">
<path d="M40.296 13.4475L38.0335 4.3925C37.756 3.28 36.756 2.5 35.6085 2.5H5.061C3.9135 2.5 2.9135 3.28 2.6335 4.3925L0.370996 13.4475C0.345996 13.545 0.333496 13.6475 0.333496 13.75C0.333496 17.195 2.996 20 6.271 20C8.1735 20 9.871 19.0525 10.9585 17.5825C12.046 19.0525 13.7435 20 15.646 20C17.5485 20 19.246 19.0525 20.3335 17.5825C21.421 19.0525 23.116 20 25.021 20C26.926 20 28.621 19.0525 29.7085 17.5825C30.796 19.0525 32.491 20 34.396 20C37.671 20 40.3335 17.195 40.3335 13.75C40.3335 13.6475 40.321 13.545 40.296 13.4475Z" fill="#293591"/>
<path d="M34.396 22.4998C32.6935 22.4998 31.076 21.9798 29.7085 21.0298C26.9735 22.9323 23.0685 22.9323 20.3335 21.0298C17.5985 22.9323 13.6935 22.9323 10.9585 21.0298C9.591 21.9798 7.9735 22.4998 6.271 22.4998C5.0435 22.4998 3.886 22.2123 2.8335 21.7223V34.9998C2.8335 36.3798 3.9535 37.4998 5.3335 37.4998H15.3335V27.4998H25.3335V37.4998H35.3335C36.7135 37.4998 37.8335 36.3798 37.8335 34.9998V21.7223C36.781 22.2123 35.6235 22.4998 34.396 22.4998Z" fill="#293591"/>
</g>
<defs>
<clipPath id="clip0_4107_3159">
<rect width="40" height="40" fill="white" transform="translate(0.333496)"/>
</clipPath>
</defs>
</svg>
