<svg width="40" height="40" viewBox="0 0 40 40" fill="none" xmlns="http://www.w3.org/2000/svg">
<path d="M38.2799 15.75C38.0095 15.1516 37.7086 14.5675 37.3783 14L33.1233 25.5583C32.961 25.9902 32.725 26.3906 32.4258 26.7417C33.5679 26.6286 34.6685 26.2533 35.6418 25.6449C36.615 25.0366 37.4346 24.2117 38.0366 23.2345C38.6387 22.2574 39.0069 21.1543 39.1125 20.0115C39.2182 18.8686 39.0585 17.7168 38.6458 16.6458C38.5324 16.3408 38.4108 16.0442 38.2799 15.75Z" fill="white"/>
<path d="M13.8584 5.33338C11.3756 6.21716 9.09664 7.59282 7.15795 9.37801C5.21926 11.1632 3.6607 13.3212 2.57558 15.7228C1.49045 18.1245 0.901061 20.7204 0.842696 23.3552C0.784331 25.9899 1.25819 28.6094 2.2359 31.0567C2.26174 31.1092 2.27924 31.1609 2.30507 31.2134C2.8245 32.4538 3.67017 33.5304 4.75228 34.3289C5.8344 35.1273 7.11255 35.6178 8.45101 35.7482C9.78947 35.8786 11.1383 35.6441 12.3542 35.0695C13.57 34.495 14.6076 33.6019 15.3567 32.485C16.9235 30.125 19.1727 28.2987 21.8042 27.25C21.8876 27.2167 21.9709 27.1917 22.0542 27.1609C22.3505 26.4774 22.7914 25.8662 23.3466 25.3694C23.9017 24.8727 24.558 24.5022 25.2701 24.2834C25.2527 23.6558 25.3814 23.0328 25.6459 22.4634L32.2292 8.20755C29.6433 6.24727 26.6117 4.95868 23.4058 4.4571C20.1998 3.95552 16.9195 4.25659 13.8584 5.33338ZM8.75007 27.0834C8.0908 27.0834 7.44633 26.8879 6.89817 26.5216C6.35 26.1553 5.92276 25.6347 5.67047 25.0257C5.41818 24.4166 5.35217 23.7464 5.48078 23.0997C5.6094 22.4531 5.92687 21.8592 6.39305 21.393C6.85922 20.9269 7.45316 20.6094 8.09977 20.4808C8.74637 20.3521 9.41659 20.4182 10.0257 20.6705C10.6348 20.9227 11.1554 21.35 11.5216 21.8981C11.8879 22.4463 12.0834 23.0908 12.0834 23.75C12.0834 24.6341 11.7322 25.4819 11.1071 26.1071C10.482 26.7322 9.63412 27.0834 8.75007 27.0834ZM12.9167 17.5C12.2575 17.5 11.613 17.3046 11.0648 16.9383C10.5167 16.572 10.0894 16.0514 9.83714 15.4423C9.58484 14.8332 9.51883 14.163 9.64745 13.5164C9.77607 12.8698 10.0935 12.2759 10.5597 11.8097C11.0259 11.3435 11.6198 11.026 12.2664 10.8974C12.913 10.7688 13.5833 10.8348 14.1923 11.0871C14.8014 11.3394 15.322 11.7666 15.6883 12.3148C16.0546 12.863 16.2501 13.5074 16.2501 14.1667C16.2501 15.0508 15.8989 15.8986 15.2738 16.5237C14.6486 17.1489 13.8008 17.5 12.9167 17.5ZM22.9167 14.5834C22.2575 14.5834 21.613 14.3879 21.0648 14.0216C20.5167 13.6553 20.0894 13.1347 19.8371 12.5257C19.5848 11.9166 19.5188 11.2463 19.6474 10.5997C19.7761 9.95314 20.0935 9.3592 20.5597 8.89302C21.0259 8.42685 21.6198 8.10938 22.2664 7.98076C22.913 7.85215 23.5833 7.91816 24.1923 8.17045C24.8014 8.42274 25.322 8.84998 25.6883 9.39815C26.0546 9.94631 26.2501 10.5908 26.2501 11.25C26.2501 12.1341 25.8989 12.9819 25.2738 13.6071C24.6486 14.2322 23.8008 14.5834 22.9167 14.5834Z" fill="white"/>
<path d="M37.8983 3.45925C37.5285 3.30568 37.1137 3.30131 36.7408 3.44705C36.3679 3.59279 36.0659 3.87732 35.8983 4.24092L27.1616 23.1618C26.9604 23.597 26.8954 24.0828 26.9749 24.5557C27.0545 25.0285 27.2749 25.4663 27.6074 25.8118C26.7953 25.6213 25.9419 25.7254 25.1994 26.1056C24.4569 26.4858 23.8735 27.1173 23.5533 27.8876C22.2041 31.1459 24.3383 32.5751 22.9883 35.8334C24.5273 35.6615 25.9934 35.0852 27.2375 34.163C28.4816 33.2409 29.4595 32.0059 30.0716 30.5834C30.3598 29.883 30.4141 29.1082 30.2264 28.3743C30.0387 27.6405 29.6191 26.987 29.0299 26.5109C29.5627 26.5796 30.1031 26.4656 30.5628 26.1876C31.0224 25.9095 31.3742 25.4839 31.5608 24.9801L38.7608 5.42092C38.8975 5.0458 38.8841 4.63239 38.7234 4.2669C38.5627 3.90141 38.2671 3.61208 37.8983 3.45925Z" fill="white"/>
</svg>
