<svg width="38" height="38" viewBox="0 0 38 38" fill="none" xmlns="http://www.w3.org/2000/svg">
<path d="M37.7176 22.8212C31.6612 5.18953 32.0793 6.39603 32.0514 6.33631C31.4223 4.87895 30.1998 3.74014 28.6947 3.2225C28.4797 3.15082 16.2872 0.295835 15.9329 0.172397C14.8538 -0.197915 13.3526 0.00914135 12.2974 0.980713L1.84904 10.5969C0.674398 11.676 0.00146484 13.213 0.00146484 14.8177V34.3606C0.00146472 36.3674 1.62606 38 3.62097 38H25.9751C27.97 38 29.5946 36.3674 29.5946 34.3606V30.1956L35.8262 27.5317C37.634 26.7433 38.4821 24.6409 37.7176 22.8212ZM8.98851 15.2915C10.9237 15.2915 12.4965 17.0395 12.4965 19.1897C12.4965 21.3399 10.9237 23.084 8.98851 23.084C7.05333 23.084 5.48049 21.3359 5.48049 19.1897C5.48049 17.0435 7.05333 15.2915 8.98851 15.2915ZM17.9716 17.1112C18.3299 16.6095 19.0228 16.49 19.5245 16.8444C20.0262 17.1988 20.1457 17.8956 19.7873 18.3973L11.6842 29.8213C11.4174 30.1996 10.9555 30.3628 10.5335 30.2672C9.76099 30.096 9.4066 29.1882 9.8685 28.5351L17.9716 17.1112ZM20.6673 31.9157C18.7321 31.9157 17.1593 30.1677 17.1593 28.0215C17.1593 25.8713 18.7321 24.1232 20.6673 24.1232C22.6025 24.1232 24.1753 25.8713 24.1753 28.0215C24.1753 30.1677 22.6025 31.9157 20.6673 31.9157ZM34.9422 25.4811L29.5946 27.7746V14.8137C29.5946 13.213 28.9217 11.672 27.747 10.5929L19.9625 3.43354L28.0138 5.34482C28.8938 5.65939 29.6145 6.32834 29.9928 7.18444C36.0412 24.7842 35.6311 23.6016 35.659 23.6614C35.9616 24.3622 35.639 25.1824 34.9422 25.4811Z" fill="#293591"/>
</svg>
