<svg width="40" height="40" viewBox="0 0 40 40" fill="none" xmlns="http://www.w3.org/2000/svg">
<g clip-path="url(#clip0_4107_3052)">
<path d="M14.5835 29.3535V37.0835C14.5835 37.6235 14.9302 38.1018 15.4435 38.2718C15.5718 38.3135 15.7035 38.3335 15.8335 38.3335C16.2235 38.3335 16.6002 38.1502 16.8402 37.8235L21.3618 31.6702L14.5835 29.3535Z" fill="#293591"/>
<path d="M39.4751 0.231814C39.0917 -0.0398523 38.5884 -0.076519 38.1717 0.141814L0.671741 19.7251C0.228407 19.9568 -0.0332592 20.4301 0.00340746 20.9285C0.0417408 21.4285 0.373408 21.8551 0.845074 22.0168L11.2701 25.5801L33.4717 6.59681L16.2917 27.2951L33.7634 33.2668C33.8934 33.3101 34.0301 33.3335 34.1667 33.3335C34.3934 33.3335 34.6184 33.2718 34.8167 33.1518C35.1334 32.9585 35.3484 32.6335 35.4034 32.2685L39.9867 1.43515C40.0551 0.968481 39.8584 0.505148 39.4751 0.231814Z" fill="#293591"/>
</g>
<defs>
<clipPath id="clip0_4107_3052">
<rect width="40" height="40" fill="white"/>
</clipPath>
</defs>
</svg>
