<svg width="40" height="40" viewBox="0 0 40 40" fill="none" xmlns="http://www.w3.org/2000/svg">
<path d="M10 26.9525C10.37 31.12 13.7825 34.0775 18.9775 34.46V37.5H21.585V34.46C27.26 34.0125 30.78 30.865 30.78 26.21C30.78 22.235 28.4125 19.935 23.39 18.64L21.585 18.1725V8.6675C24.39 8.9425 26.2825 10.4525 26.76 12.7075H30.435C30.02 8.7075 26.585 5.8375 21.585 5.52V2.5H18.9775V5.5825C14.13 6.1575 10.8025 9.2625 10.8025 13.4725C10.8025 17.1075 13.2175 19.68 17.455 20.765L18.98 21.17V31.2475C16.1075 30.8225 14.13 29.2475 13.6525 26.9525H10ZM18.4775 17.3625C15.87 16.705 14.4775 15.3 14.4775 13.3225C14.4775 10.9625 16.2375 9.22 18.9775 8.7525V17.49L18.4775 17.3625ZM22.455 22.0425C25.6725 22.85 27.085 24.19 27.085 26.465C27.085 29.2075 25.02 31.035 21.585 31.3125V21.825L22.455 22.0425Z" fill="#293591"/>
</svg>
