<svg width="40" height="40" viewBox="0 0 40 40" fill="none" xmlns="http://www.w3.org/2000/svg">
<g clip-path="url(#clip0_4234_2772)">
<path d="M20 5C20.3315 5 20.6495 5.1317 20.8839 5.36612C21.1183 5.60054 21.25 5.91848 21.25 6.25V10C21.25 10.3315 21.1183 10.6495 20.8839 10.8839C20.6495 11.1183 20.3315 11.25 20 11.25C19.6685 11.25 19.3505 11.1183 19.1161 10.8839C18.8817 10.6495 18.75 10.3315 18.75 10V6.25C18.75 5.91848 18.8817 5.60054 19.1161 5.36612C19.3505 5.1317 19.6685 5 20 5ZM9.33 9.33C9.56441 9.09566 9.88229 8.96402 10.2137 8.96402C10.5452 8.96402 10.8631 9.09566 11.0975 9.33L13.385 11.615C13.6197 11.8497 13.7516 12.1681 13.7516 12.5C13.7516 12.8319 13.6197 13.1503 13.385 13.385C13.1503 13.6197 12.8319 13.7516 12.5 13.7516C12.1681 13.7516 11.8497 13.6197 11.615 13.385L9.33 11.0975C9.09566 10.8631 8.96402 10.5452 8.96402 10.2137C8.96402 9.88229 9.09566 9.56441 9.33 9.33ZM5 20C5 19.6685 5.1317 19.3505 5.36612 19.1161C5.60054 18.8817 5.91848 18.75 6.25 18.75H10.215C10.5465 18.75 10.8645 18.8817 11.0989 19.1161C11.3333 19.3505 11.465 19.6685 11.465 20C11.465 20.3315 11.3333 20.6495 11.0989 20.8839C10.8645 21.1183 10.5465 21.25 10.215 21.25H6.25C5.91848 21.25 5.60054 21.1183 5.36612 20.8839C5.1317 20.6495 5 20.3315 5 20ZM28.75 20C28.75 19.6685 28.8817 19.3505 29.1161 19.1161C29.3505 18.8817 29.6685 18.75 30 18.75H33.75C34.0815 18.75 34.3995 18.8817 34.6339 19.1161C34.8683 19.3505 35 19.6685 35 20C35 20.3315 34.8683 20.6495 34.6339 20.8839C34.3995 21.1183 34.0815 21.25 33.75 21.25H30C29.6685 21.25 29.3505 21.1183 29.1161 20.8839C28.8817 20.6495 28.75 20.3315 28.75 20ZM30.635 9.385C30.4615 9.21324 30.2299 9.11281 29.986 9.10355C29.742 9.09429 29.5035 9.17688 29.3175 9.335L18.8675 18.275C18.6268 18.4811 18.4318 18.7352 18.295 19.021C18.1582 19.3068 18.0826 19.618 18.0731 19.9347C18.0635 20.2514 18.1203 20.5667 18.2396 20.8602C18.359 21.1537 18.5384 21.4191 18.7662 21.6392C18.9941 21.8594 19.2655 22.0295 19.5629 22.1388C19.8603 22.248 20.1773 22.2939 20.4935 22.2735C20.8097 22.253 21.1182 22.1668 21.3991 22.0203C21.6801 21.8737 21.9273 21.6701 22.125 21.4225L30.71 10.68C30.8588 10.4928 30.9337 10.2575 30.9203 10.0187C30.9069 9.77993 30.8063 9.5544 30.6375 9.385H30.635Z" fill="#293591"/>
<path fill-rule="evenodd" clip-rule="evenodd" d="M16.6607 39.7225C14.0706 39.2839 11.5922 38.3394 9.36702 36.943C7.14187 35.5465 5.21356 33.7255 3.69219 31.5838C0.619643 27.2585 -0.608847 21.8898 0.276976 16.6588C1.1628 11.4277 4.09037 6.76279 8.41567 3.69024C12.741 0.61769 18.1097 -0.6108 23.3407 0.275023C28.5721 1.16085 33.2374 4.08855 36.3101 8.41408C39.3829 12.7396 40.6115 18.1086 39.7257 23.34C38.8399 28.5714 35.9122 33.2367 31.5867 36.3094C27.2611 39.3822 21.8921 40.6108 16.6607 39.725V39.7225ZM4.99823 29.015C9.55767 26.3775 14.7334 24.9924 20.0007 25C25.4657 25 30.5907 26.4625 35.0032 29.015C36.5979 26.3596 37.4593 23.3285 37.4993 20.2314C37.5393 17.1342 36.7565 14.0818 35.231 11.3861C33.7054 8.69044 31.4917 6.44794 28.8159 4.88768C26.1401 3.32742 23.0982 2.50531 20.0007 2.50531C16.9033 2.50531 13.8613 3.32742 11.1856 4.88768C8.50978 6.44794 6.29606 8.69044 4.77049 11.3861C3.24493 14.0818 2.46218 17.1342 2.50219 20.2314C2.5422 23.3285 3.40353 26.3596 4.99823 29.015Z" fill="#293591"/>
</g>
<defs>
<clipPath id="clip0_4234_2772">
<rect width="40" height="40" fill="white"/>
</clipPath>
</defs>
</svg>
