<svg width="41" height="40" viewBox="0 0 41 40" fill="none" xmlns="http://www.w3.org/2000/svg">
<g clip-path="url(#clip0_4107_3166)">
<path d="M4.18213 18.8281H15.979C17.9176 18.8281 19.4946 17.2511 19.4946 15.3125V3.51562C19.4946 1.57703 17.9176 0 15.979 0H4.18213C2.24354 0 0.666504 1.57703 0.666504 3.51562V15.3125C0.666504 17.2511 2.24354 18.8281 4.18213 18.8281ZM6.604 8.28125H8.94775V5.9375C8.94775 5.28977 9.47189 4.76562 10.1196 4.76562C10.7674 4.76562 11.2915 5.28977 11.2915 5.9375V8.28125H13.6353C14.283 8.28125 14.8071 8.80539 14.8071 9.45312C14.8071 10.1009 14.283 10.625 13.6353 10.625H11.2915V12.9688C11.2915 13.6165 10.7674 14.1406 10.1196 14.1406C9.47189 14.1406 8.94775 13.6165 8.94775 12.9688V10.625H6.604C5.95627 10.625 5.43213 10.1009 5.43213 9.45312C5.43213 8.80539 5.95627 8.28125 6.604 8.28125Z" fill="#293591"/>
<path d="M37.1509 0H25.354C23.4154 0 21.8384 1.57703 21.8384 3.51562V15.3125C21.8384 17.2511 23.4154 18.8281 25.354 18.8281H37.1509C39.0895 18.8281 40.6665 17.2511 40.6665 15.3125V3.51562C40.6665 1.57703 39.0895 0 37.1509 0ZM34.8071 10.625H27.6978C27.05 10.625 26.5259 10.1009 26.5259 9.45312C26.5259 8.80539 27.05 8.28125 27.6978 8.28125H34.8071C35.4549 8.28125 35.979 8.80539 35.979 9.45312C35.979 10.1009 35.4549 10.625 34.8071 10.625Z" fill="#293591"/>
<path d="M37.1509 21.1719H25.354C23.4154 21.1719 21.8384 22.7489 21.8384 24.6875V36.4844C21.8384 38.423 23.4154 40 25.354 40H37.1509C39.0895 40 40.6665 38.423 40.6665 36.4844V24.6875C40.6665 22.7489 39.0895 21.1719 37.1509 21.1719ZM34.8071 34.0625H27.6978C27.05 34.0625 26.5259 33.5384 26.5259 32.8906C26.5259 32.2429 27.05 31.7188 27.6978 31.7188H34.8071C35.4549 31.7188 35.979 32.2429 35.979 32.8906C35.979 33.5384 35.4549 34.0625 34.8071 34.0625ZM34.8071 29.375H27.6978C27.05 29.375 26.5259 28.8509 26.5259 28.2031C26.5259 27.5554 27.05 27.0312 27.6978 27.0312H34.8071C35.4549 27.0312 35.979 27.5554 35.979 28.2031C35.979 28.8509 35.4549 29.375 34.8071 29.375Z" fill="#293591"/>
<path d="M19.4946 36.4844V24.6875C19.4946 22.7489 17.9176 21.1719 15.979 21.1719H4.18213C2.24354 21.1719 0.666504 22.7489 0.666504 24.6875V36.4844C0.666504 38.423 2.24354 40 4.18213 40H15.979C17.9176 40 19.4946 38.423 19.4946 36.4844ZM13.4338 32.204C13.8916 32.6617 13.8916 33.4034 13.4338 33.8611C12.9761 34.3188 12.2345 34.3188 11.7767 33.8611L10.1196 32.204L8.46252 33.8611C8.00479 34.3188 7.26314 34.3188 6.80541 33.8611C6.34768 33.4034 6.34768 32.6617 6.80541 32.204L8.46252 30.5469L6.80541 28.8898C6.34768 28.432 6.34768 27.6904 6.80541 27.2327C7.26314 26.7749 8.00479 26.7749 8.46252 27.2327L10.1196 28.8898L11.7767 27.2327C12.2345 26.7749 12.9761 26.7749 13.4338 27.2327C13.8916 27.6904 13.8916 28.432 13.4338 28.8898L11.7767 30.5469L13.4338 32.204Z" fill="#293591"/>
</g>
<defs>
<clipPath id="clip0_4107_3166">
<rect width="40" height="40" fill="white" transform="translate(0.666504)"/>
</clipPath>
</defs>
</svg>
