<svg width="40" height="40" viewBox="0 0 40 40" fill="none" xmlns="http://www.w3.org/2000/svg">
<g clip-path="url(#clip0_4234_2405)">
<path d="M5.00001 15C4.99994 12.523 5.61326 10.0846 6.78521 7.9024C7.95717 5.72022 9.65128 3.86223 11.7163 2.49433C13.7813 1.12642 16.1529 0.291185 18.6193 0.0631927C21.0858 -0.1648 23.5703 0.22155 25.8511 1.18774C28.1318 2.15394 30.1378 3.6699 31.6899 5.60027C33.242 7.53065 34.292 9.81534 34.7459 12.2504C35.1999 14.6854 35.0438 17.1949 34.2916 19.5549C33.5393 21.9149 32.2144 24.0518 30.435 25.775C29.9275 26.265 29.5375 26.775 29.3025 27.3225L27.3975 31.745C27.3009 31.9691 27.1407 32.1601 26.9368 32.2942C26.7328 32.4284 26.4941 32.4999 26.25 32.5H13.75C13.5055 32.5004 13.2662 32.4291 13.0618 32.2949C12.8574 32.1607 12.6968 31.9695 12.6 31.745L10.6975 27.32C10.4231 26.7368 10.0386 26.2122 9.56501 25.775C8.11861 24.3783 6.96883 22.7041 6.18445 20.8527C5.40007 19.0013 4.99723 17.0107 5.00001 15ZM12.5 36.25C12.5 35.9185 12.6317 35.6005 12.8661 35.3661C13.1006 35.1317 13.4185 35 13.75 35H26.25C26.5815 35 26.8995 35.1317 27.1339 35.3661C27.3683 35.6005 27.5 35.9185 27.5 36.25C27.5 36.5815 27.3683 36.8994 27.1339 37.1339C26.8995 37.3683 26.5815 37.5 26.25 37.5L25.69 38.6175C25.4825 39.0327 25.1636 39.3819 24.7688 39.6261C24.3741 39.8703 23.9192 39.9997 23.455 40H16.545C16.0809 39.9997 15.6259 39.8703 15.2312 39.6261C14.8365 39.3819 14.5175 39.0327 14.31 38.6175L13.75 37.5C13.4185 37.5 13.1006 37.3683 12.8661 37.1339C12.6317 36.8994 12.5 36.5815 12.5 36.25Z" fill="#293591"/>
</g>
<defs>
<clipPath id="clip0_4234_2405">
<rect width="40" height="40" fill="white"/>
</clipPath>
</defs>
</svg>
